<mxfile host="app.diagrams.net" modified="2023-03-23T13:18:50.023Z" agent="5.0 (Macintosh; Intel Mac OS X 10_15_7) AppleWebKit/537.36 (KHTML, like Gecko) Chrome/111.0.0.0 Safari/537.36" etag="jGVKjN8QljHDfPe3MV9R" version="21.0.10" type="github">
  <diagram name="Page-1" id="zjmSkFf3N7D6mE1VtNUy">
    <mxGraphModel dx="1194" dy="795" grid="1" gridSize="10" guides="1" tooltips="1" connect="1" arrows="1" fold="1" page="1" pageScale="1" pageWidth="827" pageHeight="1169" math="0" shadow="0">
      <root>
        <mxCell id="0" />
        <mxCell id="1" parent="0" />
        <mxCell id="AuMvvWa5Z8iLzGaw_m6S-1" value="" style="endArrow=none;dashed=1;html=1;rounded=0;" edge="1" parent="1">
          <mxGeometry width="50" height="50" relative="1" as="geometry">
            <mxPoint x="200" y="500" as="sourcePoint" />
            <mxPoint x="200" y="40" as="targetPoint" />
          </mxGeometry>
        </mxCell>
        <mxCell id="AuMvvWa5Z8iLzGaw_m6S-2" value="April 3d" style="text;strokeColor=none;align=center;fillColor=none;html=1;verticalAlign=middle;whiteSpace=wrap;rounded=0;" vertex="1" parent="1">
          <mxGeometry x="170" y="10" width="60" height="30" as="geometry" />
        </mxCell>
        <mxCell id="AuMvvWa5Z8iLzGaw_m6S-7" style="edgeStyle=orthogonalEdgeStyle;rounded=0;orthogonalLoop=1;jettySize=auto;html=1;exitX=0.5;exitY=1;exitDx=0;exitDy=0;entryX=0;entryY=0.5;entryDx=0;entryDy=0;" edge="1" parent="1" source="AuMvvWa5Z8iLzGaw_m6S-3" target="AuMvvWa5Z8iLzGaw_m6S-6">
          <mxGeometry relative="1" as="geometry" />
        </mxCell>
        <mxCell id="AuMvvWa5Z8iLzGaw_m6S-3" value="fix Vault + Oracle configuration drift between KIPx-KIP0" style="rounded=1;whiteSpace=wrap;html=1;" vertex="1" parent="1">
          <mxGeometry x="40" y="160" width="120" height="60" as="geometry" />
        </mxCell>
        <mxCell id="AuMvvWa5Z8iLzGaw_m6S-5" value="" style="edgeStyle=orthogonalEdgeStyle;rounded=0;orthogonalLoop=1;jettySize=auto;html=1;" edge="1" parent="1" source="AuMvvWa5Z8iLzGaw_m6S-4" target="AuMvvWa5Z8iLzGaw_m6S-3">
          <mxGeometry relative="1" as="geometry" />
        </mxCell>
        <mxCell id="AuMvvWa5Z8iLzGaw_m6S-4" value="Pre-verify KIPX" style="rounded=1;whiteSpace=wrap;html=1;" vertex="1" parent="1">
          <mxGeometry x="40" y="60" width="120" height="60" as="geometry" />
        </mxCell>
        <mxCell id="AuMvvWa5Z8iLzGaw_m6S-13" style="edgeStyle=orthogonalEdgeStyle;rounded=0;orthogonalLoop=1;jettySize=auto;html=1;exitX=0.75;exitY=0;exitDx=0;exitDy=0;entryX=0;entryY=0.5;entryDx=0;entryDy=0;" edge="1" parent="1" source="AuMvvWa5Z8iLzGaw_m6S-6" target="AuMvvWa5Z8iLzGaw_m6S-10">
          <mxGeometry relative="1" as="geometry" />
        </mxCell>
        <mxCell id="AuMvvWa5Z8iLzGaw_m6S-14" style="edgeStyle=orthogonalEdgeStyle;rounded=0;orthogonalLoop=1;jettySize=auto;html=1;exitX=0.75;exitY=1;exitDx=0;exitDy=0;entryX=0;entryY=0.5;entryDx=0;entryDy=0;" edge="1" parent="1" source="AuMvvWa5Z8iLzGaw_m6S-6" target="AuMvvWa5Z8iLzGaw_m6S-11">
          <mxGeometry relative="1" as="geometry" />
        </mxCell>
        <mxCell id="AuMvvWa5Z8iLzGaw_m6S-6" value="Deploy KIPX -&amp;gt; KIP0" style="rounded=1;whiteSpace=wrap;html=1;" vertex="1" parent="1">
          <mxGeometry x="140" y="270" width="120" height="60" as="geometry" />
        </mxCell>
        <mxCell id="AuMvvWa5Z8iLzGaw_m6S-8" value="" style="endArrow=none;dashed=1;html=1;rounded=0;" edge="1" parent="1">
          <mxGeometry width="50" height="50" relative="1" as="geometry">
            <mxPoint x="600" y="500" as="sourcePoint" />
            <mxPoint x="600" y="40" as="targetPoint" />
          </mxGeometry>
        </mxCell>
        <mxCell id="AuMvvWa5Z8iLzGaw_m6S-9" value="May 1st" style="text;strokeColor=none;align=center;fillColor=none;html=1;verticalAlign=middle;whiteSpace=wrap;rounded=0;" vertex="1" parent="1">
          <mxGeometry x="570" y="10" width="60" height="30" as="geometry" />
        </mxCell>
        <mxCell id="AuMvvWa5Z8iLzGaw_m6S-10" value="DAT Test for KIP0" style="rounded=1;whiteSpace=wrap;html=1;" vertex="1" parent="1">
          <mxGeometry x="280" y="220" width="120" height="60" as="geometry" />
        </mxCell>
        <mxCell id="AuMvvWa5Z8iLzGaw_m6S-11" value="Manual Test on KIP0" style="rounded=1;whiteSpace=wrap;html=1;" vertex="1" parent="1">
          <mxGeometry x="280" y="330" width="120" height="60" as="geometry" />
        </mxCell>
        <mxCell id="AuMvvWa5Z8iLzGaw_m6S-16" style="edgeStyle=orthogonalEdgeStyle;rounded=0;orthogonalLoop=1;jettySize=auto;html=1;exitX=1;exitY=0.5;exitDx=0;exitDy=0;entryX=0;entryY=0.5;entryDx=0;entryDy=0;" edge="1" parent="1" source="AuMvvWa5Z8iLzGaw_m6S-12" target="AuMvvWa5Z8iLzGaw_m6S-15">
          <mxGeometry relative="1" as="geometry" />
        </mxCell>
        <mxCell id="AuMvvWa5Z8iLzGaw_m6S-12" value="Split KIP1-2-3 Oracle\Postgres" style="rounded=1;whiteSpace=wrap;html=1;" vertex="1" parent="1">
          <mxGeometry x="230" y="100" width="150" height="60" as="geometry" />
        </mxCell>
        <mxCell id="AuMvvWa5Z8iLzGaw_m6S-18" style="edgeStyle=orthogonalEdgeStyle;rounded=0;orthogonalLoop=1;jettySize=auto;html=1;exitX=0.5;exitY=1;exitDx=0;exitDy=0;entryX=0;entryY=0.5;entryDx=0;entryDy=0;" edge="1" parent="1" source="AuMvvWa5Z8iLzGaw_m6S-15" target="AuMvvWa5Z8iLzGaw_m6S-17">
          <mxGeometry relative="1" as="geometry" />
        </mxCell>
        <mxCell id="AuMvvWa5Z8iLzGaw_m6S-15" value="fix Vault + Postgres configuration drift for KIPx-KIP0&amp;nbsp;" style="rounded=1;whiteSpace=wrap;html=1;" vertex="1" parent="1">
          <mxGeometry x="410" y="100" width="160" height="60" as="geometry" />
        </mxCell>
        <mxCell id="AuMvvWa5Z8iLzGaw_m6S-17" value="Deploy KIPx on KIP1" style="rounded=1;whiteSpace=wrap;html=1;" vertex="1" parent="1">
          <mxGeometry x="540" y="260" width="120" height="60" as="geometry" />
        </mxCell>
      </root>
    </mxGraphModel>
  </diagram>
</mxfile>
